<?xml version="1.0" encoding="UTF-8"?>
<svg id="Layer_2" data-name="Layer 2" xmlns="http://www.w3.org/2000/svg" viewBox="0 0 256 225.72">
  <defs>
    <style>
      .cls-1 {
        fill: #f4834f;
      }
    </style>
  </defs>
  <g id="icons">
    <path id="sentry" class="cls-1" d="M184.6,225.51c2.99-65.43-29.05-127.51-84.11-162.98l23.93-41c1.11-1.86,3.51-2.48,5.38-1.38,2.72,1.49,103.99,178.21,105.89,180.26,1.05,1.88,.37,4.25-1.5,5.3-.6,.34-1.29,.51-1.98,.49h-24.4c.31,6.53,.31,13.04,0,19.53h24.5c12.99,.09,23.59-10.38,23.68-23.37,0-.09,0-.17,0-.26,0-4.11-1.09-8.14-3.18-11.69L148.37,11.59C141.55,.26,126.84-3.38,115.52,3.44c-3.34,2.01-6.14,4.81-8.15,8.15l-33.72,57.76c52.43,26.17,87.05,78.18,90.97,136.64"/>
    <path id="sentry-2" data-name="sentry" class="cls-1" d="M164.62,205.99h-23.68c-3.92-50.11-34.06-94.41-79.24-116.45l-31.21,53.97c25.36,11.38,43.19,34.88,47.31,62.37H23.42c-2.15-.15-3.76-2.01-3.61-4.16,.04-.53,.19-1.05,.43-1.53l15.07-25.63c-5.11-4.26-10.94-7.56-17.22-9.74l-14.91,25.63c-6.47,11.1-2.72,25.35,8.38,31.82,.09,.05,.19,.11,.28,.16,3.54,1.99,7.52,3.05,11.58,3.08H97.89c2.81-34.71-12.74-68.37-41-88.72l11.84-20.5c35.68,24.5,55.75,66.04,52.79,109.22h63.09"/>
  </g>
</svg>