<?xml version="1.0" encoding="utf-8"?>
<!-- Generator: Adobe Illustrator 27.0.0, SVG Export Plug-In . SVG Version: 6.00 Build 0)  -->
<svg version="1.1"
	 id="svg9779" xmlns:svg="http://www.w3.org/2000/svg" xmlns:dc="http://purl.org/dc/elements/1.1/" xmlns:rdf="http://www.w3.org/1999/02/22-rdf-syntax-ns#" xmlns:cc="http://creativecommons.org/ns#"
	 xmlns="http://www.w3.org/2000/svg" xmlns:xlink="http://www.w3.org/1999/xlink" x="0px" y="0px" viewBox="0 0 336 49.6"
	 style="enable-background:new 0 0 336 49.6;" xml:space="preserve">
<style type="text/css">
	.st0{fill:#CCCCCC;}
</style>
<path id="path813" class="st0" d="M275.7,0c0,0,0,34.5,0,34.5c0,1.7,0.9,2.7,1.8,3.3c1,0.7,2.4,1,4.4,1c1.2,0,2.9-0.4,2.9-0.4
	c0,0,0-3.1,0-3.1c-0.5,0-0.9,0.1-1.4,0.1c-2.9,0-3.3-1.1-3.3-2.4c0,0,0-33,0-33L275.7,0z M184.5,0.4c-3.3,0-6.2,1-8.3,2.9
	c-2,1.8-3.2,4.3-3.2,6.9c0,2.9,1.2,5.2,3.7,7.1c2.2,1.6,5.1,2.6,7.9,3.6c4.8,1.7,9.4,3.3,9.4,7.7c0,2-0.7,3.6-1.9,4.8
	c-1.4,1.3-3.4,1.9-6,1.9c-4.6,0-8-2.6-9.9-7.5c0,0-4.1,1.1-4.1,1.1c0.9,2,2.4,4.9,4.6,6.9c2.4,2.2,5.4,3.2,9.2,3.2
	c4.4,0,7.8-1.1,10-3.4c2.3-2.4,2.8-5.4,2.8-7.6c0-3.1-1.3-5.4-3.9-7.3c-2.3-1.6-5.2-2.7-8.1-3.7c-4.7-1.6-9.1-3.1-9.1-7.1
	c0-1.8,0.7-3.3,1.8-4.3c1.2-1,2.9-1.5,5-1.5c2.3,0,4.3,0.6,5.8,1.9c1.4,1.1,2.4,2.8,2.9,4.7c0,0,4-0.5,4-0.5
	C195.4,4,191.1,0.3,184.5,0.4z M0,0.9v37.5h4.3V4.1l0.1,0.1l10.3,34.1H18L28.4,4.2l0.1-0.1v34.2h4.3V0.9h-7.2L16.4,31v0.1L16.3,31
	L7.2,0.9L0,0.9z M205.5,1.6v9h-4.1v3.4c0,0,4.1,0,4.1,0c0,0,0,19.2,0,20.4c0,1.7,0.8,2.7,1.7,3.3c1,0.7,2.4,1,4.4,1
	c1.2,0,2.9-0.4,2.9-0.4c0,0,0-3.1,0-3.1c-0.5,0-1,0.1-1.5,0.1c-2.9,0-3.2-1.1-3.2-2.4c0,0,0-18.9,0-18.9h4.7v-3.4h-4.7v-9H205.5z
	 M50.2,10.1c-3.6,0-6.7,1.5-8.9,4.2c-2,2.6-3.1,6.2-3.1,10.1c0,4,1.1,7.6,3.1,10.2c2.2,2.7,5.2,4.2,8.9,4.2c3.6,0,6.7-1.5,8.9-4.2
	c2-2.6,3.1-6.2,3.1-10.2c0-4-1.1-7.6-3.1-10.1C56.9,11.6,53.9,10.1,50.2,10.1z M299.3,10.2c-1.8,0-3.6,0.3-5,1
	c-1.4,0.6-2.7,1.6-3.7,2.9c-2,2.5-3.1,6.1-3.1,10.5c0,4.9,1.4,8.7,4,11.1c2.7,2.6,6.1,3.2,8.5,3.2c6.2,0,9.2-3.4,10.5-6.4
	c0,0-3.4-1.7-3.4-1.7c-0.8,1.9-2.8,4.7-7.1,4.7c-2.5,0-4.5-1-5.9-2.9c-1.4-1.8-2.2-4.3-2.2-7.2c0,0,18.9,0,18.9,0c0,0,0-2.6,0-2.6
	c0-4.5-1.2-7.9-3.4-10C305.5,11,302.8,10.2,299.3,10.2z M94.4,10.2c-4.9,0-11.8,3.3-11.8,14.3c0,10.7,6.9,14.3,11.5,14.3
	c2.7,0,5.2-1.5,6.9-3.7c0,0,0.2-0.1,0.2-0.1c0,0,0,5.2,0,5.2c0,3.7-3.2,5.9-6.6,5.9c-3.3,0-6.2-0.6-8.6-1.8c0,0,0,3.7,0,3.7
	c2,0.9,5.3,1.4,8.1,1.4c7.7,0,11.3-4.2,11.3-10.3c0,0,0-28.5,0-28.5h-3.2l-0.9,2.9C99.8,11.6,97.7,10.2,94.4,10.2z M122.3,10.2
	c-6.1,0-9,3.7-10.3,6l3.4,1.8c0.5-1.3,2.2-4.3,6.9-4.3c3.7,0,5.5,1.6,5.5,4.8v1c0,0,0,0.3-0.1,0.4c-0.1,0.2-0.5,0.3-1.5,0.4
	c-5.1,0.6-8.6,1.4-11.1,3c-2.7,1.8-4.4,4.2-4.4,7.6c0,2.4,1.2,4.4,2.7,5.9c1.4,1.3,3.3,2,5.5,2.1c4.5,0.1,7.5-1.7,9-4
	c0.1,1.5,0.7,2.4,1.9,3c1.1,0.6,3,0.5,3.8,0.3c0,0,0-2.9,0-2.9c-1,0-1.6-0.5-1.6-1.7c0,0,0-13.4,0-13.4c0,0,0-1.8,0-1.8
	c0-2.8-1.1-5-3.1-6.5C127.3,10.9,124.9,10.2,122.3,10.2L122.3,10.2z M152,10.2c-2.8,0-5.7,1.5-8.1,4.2v-3.7h-4.3v27.6h4.3
	c0,0,0-20.5,0-20.5c1.5-1.6,4.8-4.2,7.8-4.2c3,0,4.3,1.5,4.3,4.8c0,0,0,20,0,20h4.3V18.3C160.3,12.3,156.1,10.2,152,10.2z
	 M230.1,10.2c-6.1,0-9,3.7-10.3,6c0,0,3.4,1.8,3.4,1.8c0.5-1.3,2.2-4.3,6.9-4.3c3.7,0,5.5,1.6,5.5,4.8c0,0,0,1,0,1
	c0,0,0,0.3-0.1,0.4c-0.1,0.2-0.5,0.3-1.4,0.4c-5.1,0.6-8.6,1.4-11.1,3c-2.7,1.8-4.4,4.2-4.4,7.6c0,2.4,1.2,4.4,2.7,5.9
	c1.4,1.3,3.4,2,5.5,2.1c4.5,0.1,7.5-1.7,9-4c0.1,1.5,0.7,2.4,1.9,3c1.1,0.6,3,0.5,3.8,0.3c0,0,0-2.9,0-2.9c-1,0-1.6-0.5-1.6-1.7
	c0,0,0-13.4,0-13.4c0,0,0-1.8,0-1.8c0-2.8-1.1-5-3.2-6.5C235,10.9,232.7,10.2,230.1,10.2L230.1,10.2z M259.8,10.2
	c-2.8,0-5.7,1.5-8.1,4.2v-3.7h-4.3v27.6h4.3c0,0,0-20.5,0-20.5c1.5-1.6,4.8-4.2,7.8-4.2c3,0,4.3,1.5,4.3,4.8v20h4.3V18.3
	C268.1,12.3,263.9,10.2,259.8,10.2z M81,10.3c-4.4,0-7,1.7-9.2,5.7v-0.3v-5h-4.3v27.6h4.3c0,0,0-15.6,0-15.6
	c1.1-5.7,4.1-8.3,9.2-8.3C81,14.4,81,10.3,81,10.3z M313.7,10.7l9.6,27.4c0,0,0,0.2,0,0.2c-0.6,2.6-2.2,5.9-3.7,6.9
	c-1.3,0.9-2.7,1-3.8,1c-0.5,0-1.6-0.2-2.1-0.3c0,0,0,3.3,0,3.3c0.6,0.1,2,0.4,2.9,0.4c2.1,0,3.8-0.5,5.2-1.6
	c1.7-1.3,3.7-4.6,4.6-7.4c0,0,9.6-30,9.6-30h-4.2l-6.3,21.2l-0.1,0.5l-0.1-0.5l-7.4-21.2L313.7,10.7z M50.2,13.5
	c4.6,0,7.4,4.1,7.4,10.9c0,6.8-2.8,10.9-7.4,10.9c-4.6,0-7.4-4.1-7.4-10.9C42.8,17.6,45.6,13.5,50.2,13.5z M94.7,13.6
	c2.4,0,4.6,1.1,6.6,3.6c0,0,0,13.2,0,13.2c-1.1,3.2-4.3,5-6.6,5c-4.5,0-7.5-2.8-7.5-11.1C87.2,17.3,90,13.6,94.7,13.6z M299.4,13.6
	c4.9,0,7.2,2.6,7.2,8.3c0,0-14.5,0-14.5,0C292.4,16.2,294.8,13.6,299.4,13.6z M128,23.3c0,0,0,7,0,7c-0.2,2.4-4.7,5.3-8.4,5.1
	c-2-0.1-4-1.7-4.2-4.4c-0.3-4.5,3-6.3,10.6-7.2C126.5,23.8,127.5,23.6,128,23.3z M235.8,23.3c0,0,0,7,0,7c-0.2,2.4-4.7,5.3-8.4,5.1
	c-2-0.1-4-1.7-4.2-4.4c-0.3-4.5,3-6.3,10.6-7.2C234.3,23.8,235.3,23.6,235.8,23.3z"/>
</svg>
